<?xml version="1.0" standalone="no"?>
<!DOCTYPE svg PUBLIC "-//W3C//DTD SVG 20010904//EN"
 "http://www.w3.org/TR/2001/REC-SVG-20010904/DTD/svg10.dtd">
<svg version="1.0" xmlns="http://www.w3.org/2000/svg"
 width="1563.000000pt" height="1563.000000pt" viewBox="0 0 1563.000000 1563.000000"
 preserveAspectRatio="xMidYMid meet">

<g transform="translate(0.000000,1563.000000) scale(0.100000,-0.100000)"
fill="#000000" stroke="none">
<path d="M0 7815 l0 -7815 7815 0 7815 0 0 7815 0 7815 -7815 0 -7815 0 0
-7815z m5974 4536 c294 -78 552 -273 743 -560 63 -94 122 -222 130 -279 5 -37
5 -37 -64 -71 -230 -113 -441 -330 -548 -566 -54 -118 -111 -299 -126 -400
-21 -137 -18 -589 5 -871 l19 -231 -24 -44 c-66 -120 -334 -199 -522 -155
-209 49 -379 164 -571 385 -192 222 -334 481 -438 796 -120 368 -142 771 -57
1073 95 340 369 675 681 833 93 47 208 87 303 105 106 20 367 12 469 -15z
m3566 15 c155 -29 352 -120 485 -226 74 -59 186 -175 246 -255 115 -152 195
-331 241 -536 20 -91 23 -130 23 -314 -1 -172 -5 -231 -22 -325 -57 -304 -142
-548 -276 -802 -193 -364 -462 -628 -732 -719 -99 -33 -249 -33 -355 0 -89 27
-179 73 -211 107 -25 27 -26 7 12 334 17 142 23 549 10 685 -22 236 -78 443
-165 612 -79 151 -136 231 -228 319 -95 91 -183 152 -315 218 -51 26 -94 50
-97 55 -3 4 10 44 28 87 166 390 524 688 913 758 101 18 346 19 443 2z m-1685
-1006 c411 -83 684 -333 791 -725 39 -143 54 -265 61 -485 17 -584 -85 -1196
-254 -1535 -132 -261 -308 -444 -513 -530 -125 -53 -193 -67 -349 -72 -212 -8
-358 20 -512 98 -283 142 -489 429 -603 838 -70 249 -113 598 -123 1001 -6
264 4 411 42 584 48 220 112 351 248 509 150 173 431 309 697 338 125 13 402
2 515 -21z m-2841 -2356 c9 -3 55 -54 103 -113 291 -356 440 -460 644 -449 60
3 87 10 142 38 74 38 196 144 292 253 33 37 66 66 74 65 9 -2 35 -55 61 -125
60 -155 158 -352 211 -421 22 -30 38 -59 37 -64 -2 -6 -53 -29 -113 -50 -61
-22 -171 -61 -245 -88 -74 -26 -166 -60 -205 -75 -38 -15 -165 -60 -280 -100
-116 -41 -246 -88 -290 -105 -44 -17 -174 -65 -290 -105 -410 -144 -597 -214
-616 -231 -10 -9 -21 -33 -25 -53 -3 -20 -19 -101 -34 -181 -16 -80 -43 -235
-60 -345 -38 -233 -43 -249 -70 -242 -11 3 -20 0 -20 -5 0 -6 -9 -3 -20 7 -11
10 -20 14 -20 9 0 -5 -4 -4 -8 2 -10 15 -57 30 -48 15 5 -7 1 -9 -8 -5 -9 3
-13 11 -9 18 4 6 -2 4 -12 -4 -13 -10 -16 -11 -11 -2 5 9 1 15 -13 19 -11 3
-18 10 -14 16 4 6 -4 8 -21 3 -18 -4 -25 -3 -21 4 6 9 -16 13 -70 12 -17 -1
-17 0 -2 4 9 3 17 10 17 16 0 6 -3 9 -6 6 -3 -4 -18 -3 -34 2 -18 5 -32 4 -40
-3 -10 -9 -12 -8 -7 6 5 14 2 16 -18 11 -15 -4 -25 -2 -25 5 0 6 7 8 15 5 8
-4 15 -2 15 4 0 14 -28 23 -35 12 -4 -6 -11 -10 -17 -10 -6 0 -6 6 2 15 11 13
10 14 -4 9 -22 -8 -49 15 -43 37 3 10 -1 26 -9 36 -13 17 -15 17 -29 -1 -17
-23 -19 -18 -5 18 7 20 6 24 -5 19 -9 -3 -15 1 -15 8 0 7 -7 21 -16 30 -9 10
-18 29 -19 41 -1 13 -3 29 -4 36 0 8 -6 10 -13 6 -9 -5 -9 -3 1 9 11 14 11 18
-3 23 -9 3 -16 10 -16 16 0 5 5 6 11 2 7 -4 9 0 5 12 -12 42 -14 74 -4 80 7 5
8 2 3 -6 -5 -9 -4 -11 3 -6 9 5 7 14 -4 31 -15 23 -15 26 1 42 16 15 16 18 1
28 -9 7 -16 22 -16 35 0 15 -5 20 -14 17 -11 -4 -11 -1 -2 18 10 21 12 22 18
7 5 -14 7 -13 7 6 1 12 -5 22 -13 22 -10 0 -13 14 -12 54 1 30 -2 52 -6 50
-17 -11 -19 27 -4 51 9 14 13 25 9 24 -27 -4 -34 2 -19 17 19 19 22 42 4 26
-10 -8 -13 -4 -15 15 -1 20 1 23 9 12 7 -10 8 1 4 33 -3 26 -2 50 3 53 5 3 7
14 4 26 -4 15 -8 17 -14 8 -5 -8 -3 -17 4 -21 8 -5 8 -8 1 -8 -18 0 -23 11
-15 34 17 45 22 78 11 71 -16 -10 -12 4 10 41 19 30 19 33 4 42 -13 7 -14 13
-5 29 8 16 7 24 -4 33 -17 14 -20 50 -5 50 5 0 7 -8 3 -17 -3 -10 -3 -15 1
-12 11 10 16 49 6 49 -5 0 -7 7 -4 15 4 8 2 15 -4 15 -17 0 -22 28 -5 34 11 5
14 2 9 -11 -6 -14 -4 -15 4 -7 9 9 9 17 1 32 -15 27 -14 38 4 55 13 13 13 16
-1 21 -8 3 -13 2 -10 -3 3 -5 -1 -14 -8 -20 -22 -18 -14 13 10 40 10 12 13 19
7 15 -16 -9 -16 -5 -3 29 9 23 8 26 -5 21 -9 -3 -15 0 -15 10 0 8 4 13 9 10 5
-3 11 5 13 19 5 22 3 23 -10 13 -11 -9 -14 -9 -9 -1 4 7 0 16 -10 22 -16 9
-15 11 7 11 14 1 20 4 13 6 -7 3 -9 12 -6 20 3 7 10 11 16 7 6 -4 1 9 -11 28
-12 18 -27 33 -34 31 -7 -2 -5 5 5 16 10 11 15 26 11 36 -3 9 -1 16 6 16 6 0
8 4 5 10 -3 5 4 27 15 50 11 22 17 40 13 40 -4 0 1 6 12 13 10 8 15 19 11 26
-4 6 -4 11 1 10 21 -4 31 3 35 24 4 18 0 23 -18 25 -18 1 -22 -2 -18 -16 4
-11 3 -13 -3 -6 -4 7 -19 14 -33 16 -48 8 451 159 780 236 74 17 358 74 430
85 42 7 78 7 94 1z m5213 -15 c166 -26 540 -110 713 -159 19 -5 98 -28 175
-49 143 -41 333 -106 344 -117 3 -4 -5 -4 -19 -1 -61 14 -104 19 -97 11 4 -4
-3 -14 -15 -21 l-23 -13 25 5 c24 6 26 3 27 -35 1 -22 -2 -38 -7 -35 -18 11
-20 -15 -4 -41 14 -20 15 -27 4 -34 -7 -4 -9 -13 -6 -19 4 -6 3 -11 -3 -11 -5
0 -9 -9 -8 -20 1 -11 6 -20 12 -20 6 0 6 -3 -1 -8 -23 -15 -34 -50 -24 -76 7
-18 6 -26 -1 -26 -8 0 -7 -5 1 -15 7 -8 8 -15 2 -15 -5 0 -12 -9 -15 -20 -3
-11 -1 -18 3 -15 10 6 25 -34 16 -42 -3 -4 -6 2 -6 12 0 10 -3 15 -7 11 -5 -4
-8 -21 -8 -37 0 -16 3 -29 8 -29 4 0 7 -7 7 -15 0 -8 -4 -15 -8 -15 -5 0 -9
-7 -9 -15 0 -8 4 -12 8 -9 18 11 20 -38 2 -58 -17 -20 -17 -21 0 -15 17 6 17
5 2 -15 -17 -25 -21 -63 -5 -53 6 3 10 3 11 -2 0 -4 2 -16 4 -25 2 -10 0 -17
-3 -17 -23 3 -31 -3 -25 -18 4 -10 11 -21 17 -25 7 -5 6 -8 -3 -8 -11 0 -10
-4 3 -19 17 -19 7 -39 -14 -26 -5 3 -10 -1 -10 -10 0 -12 5 -15 16 -11 10 4
14 1 11 -6 -2 -7 -15 -12 -28 -11 -13 1 -18 0 -10 -3 11 -5 11 -8 0 -15 -10
-6 -7 -9 11 -10 l25 -1 -25 -8 -25 -8 28 -1 c15 -1 27 -6 27 -12 0 -5 -4 -8
-8 -5 -4 2 -14 1 -22 -5 -13 -7 -12 -9 2 -9 11 0 15 -6 11 -20 -3 -12 2 -29
13 -42 l19 -21 -27 18 c-15 9 -25 22 -21 28 4 6 1 7 -6 2 -9 -5 -8 -13 7 -29
30 -33 38 -50 20 -43 -12 4 -15 -1 -14 -18 0 -13 4 -21 7 -19 4 2 10 -3 13
-12 3 -8 2 -12 -4 -9 -6 3 -7 -1 -4 -9 4 -11 0 -16 -11 -16 -11 0 -15 5 -11
16 3 8 2 12 -4 9 -13 -8 -13 -35 0 -35 6 0 10 -7 10 -15 0 -8 4 -15 8 -15 13
0 11 -110 -2 -110 -6 -1 -5 -6 4 -13 18 -15 26 -42 9 -31 -9 5 -10 2 -6 -9 4
-12 1 -17 -11 -17 -14 0 -15 -2 -2 -9 8 -6 18 -7 22 -5 4 3 8 0 8 -6 0 -6 -6
-13 -14 -16 -8 -3 -12 -14 -9 -27 4 -18 3 -19 -6 -7 -9 13 -11 13 -11 -2 0
-10 6 -18 13 -18 8 0 8 -3 1 -8 -19 -13 -25 -42 -9 -42 20 0 19 -16 0 -24 -13
-4 -14 -10 -5 -26 9 -16 8 -20 -5 -20 -9 0 -13 -5 -10 -10 4 -6 9 -8 13 -6 4
2 7 -23 8 -56 0 -49 -2 -57 -12 -44 -10 15 -12 15 -17 -4 -4 -15 0 -20 16 -21
20 0 20 -1 -3 -10 -22 -9 -23 -12 -9 -22 15 -11 15 -14 1 -27 -14 -13 -15 -12
-9 3 5 14 3 16 -12 8 -10 -6 -23 -16 -29 -24 -10 -12 -8 -14 12 -12 19 2 23
-1 18 -17 -3 -12 -10 -17 -19 -14 -17 7 -49 -21 -38 -32 4 -4 10 -1 12 6 3 6
9 12 14 12 14 0 11 -24 -7 -46 -13 -16 -15 -16 -10 -1 3 9 1 17 -4 17 -6 0
-10 -7 -10 -15 0 -8 -7 -15 -15 -15 -8 0 -22 -11 -31 -25 -9 -14 -23 -25 -30
-25 -8 0 -14 -6 -14 -12 0 -7 -12 -14 -26 -14 -14 -1 -33 -9 -43 -18 -10 -9
-25 -16 -34 -16 -10 0 -17 -11 -19 -32 l-3 -33 -120 -3 c-66 -1 -126 2 -133 6
-15 10 -44 149 -61 297 -32 277 -66 502 -79 521 -12 19 -92 55 -207 95 -60 20
-193 67 -295 102 -170 60 -241 85 -550 197 -58 21 -175 63 -260 93 -748 266
-780 278 -780 286 0 3 20 33 45 66 58 77 156 267 216 420 26 65 51 121 56 122
6 2 41 -31 79 -73 96 -108 220 -214 290 -248 76 -37 202 -47 285 -22 148 44
218 106 552 489 34 39 66 67 77 67 11 0 77 -9 147 -21z m-6526 -432 c-10 -9
-11 -8 -5 6 3 10 9 15 12 12 3 -3 0 -11 -7 -18z m7664 -8 c11 -17 -1 -21 -15
-4 -8 9 -8 15 -2 15 6 0 14 -5 17 -11z m-7667 -464 c-3 -3 -9 2 -12 12 -6 14
-5 15 5 6 7 -7 10 -15 7 -18z m4842 -182 c91 -36 224 -86 295 -112 72 -26 371
-138 665 -248 294 -111 589 -220 655 -243 188 -66 188 -66 199 -160 7 -56 34
-229 61 -395 8 -49 31 -193 50 -320 35 -223 102 -632 147 -883 12 -73 18 -126
12 -132 -5 -4 -564 -10 -1253 -12 l-1244 -3 -9 25 c-22 59 2 209 87 550 113
450 136 541 335 1299 49 189 90 351 90 361 0 10 -41 63 -91 117 -50 54 -119
129 -152 167 -72 80 -82 81 153 -11z m-1881 -11 c-41 -42 -111 -118 -155 -168
l-82 -92 33 -128 c18 -71 40 -154 48 -184 9 -30 28 -100 42 -155 38 -140 54
-199 123 -450 33 -121 74 -272 91 -335 31 -119 69 -264 102 -385 95 -350 100
-375 97 -484 l-3 -106 -1245 0 -1245 0 1 45 c0 25 8 88 17 140 9 52 26 156 37
230 11 74 25 160 30 190 23 133 121 754 140 890 5 41 17 126 25 189 9 71 21
121 30 132 22 23 104 57 530 215 204 75 465 173 580 216 116 44 289 108 385
143 223 80 442 163 448 170 3 3 14 5 25 5 15 0 2 -19 -54 -78z m-2954 38 c3
-6 -1 -7 -9 -4 -18 7 -21 14 -7 14 6 0 13 -4 16 -10z m-11 -301 c-6 -11 -24
-2 -24 11 0 5 7 7 15 4 8 -4 12 -10 9 -15z m7631 -108 c-3 -6 -11 -11 -16 -11
-5 0 -4 6 3 14 14 16 24 13 13 -3z m-7620 -11 c-3 -5 -11 -10 -16 -10 -6 0 -7
5 -4 10 3 6 11 10 16 10 6 0 7 -4 4 -10z m3959 -147 c174 -95 196 -110 196
-133 0 -11 -30 -111 -67 -223 l-68 -202 2 -325 c1 -179 7 -493 14 -699 10
-314 9 -375 -2 -382 -8 -5 -105 -9 -216 -9 -187 0 -203 1 -212 19 -7 12 -7
118 -1 312 5 162 14 459 20 660 l10 366 -54 174 c-30 96 -65 205 -77 243 -14
46 -19 74 -13 84 9 13 316 177 338 181 6 0 64 -29 130 -66z m-3957 25 c-3 -7
-5 -2 -5 12 0 14 2 19 5 13 2 -7 2 -19 0 -25z m12 -63 c0 -5 -4 -3 -9 5 -5 8
-9 22 -9 30 0 16 17 -16 18 -35z m3454 -2723 c16 -2 17 -13 15 -119 l-3 -118
-355 -5 -355 -5 -5 -470 -5 -470 -115 0 -115 0 -3 472 -2 473 -358 2 -357 3
-3 117 c-3 115 -2 117 20 120 23 3 1606 3 1641 0z m2635 -14 c7 -7 12 -37 12
-67 0 -61 18 -139 43 -187 35 -67 157 -151 257 -176 75 -19 218 -38 285 -38
127 0 318 40 409 86 110 55 160 134 177 281 5 47 12 90 15 94 3 5 50 9 105 9
95 0 100 -1 108 -23 13 -33 -5 -186 -29 -254 -11 -31 -31 -74 -45 -94 -36 -55
-144 -168 -177 -185 -15 -8 -28 -20 -27 -27 0 -6 32 -39 71 -72 136 -115 190
-214 210 -386 15 -128 15 -129 -111 -130 -51 0 -95 2 -98 5 -4 3 -10 43 -14
88 -15 168 -59 236 -194 299 -119 56 -203 72 -385 72 -148 0 -175 -3 -265 -27
-227 -62 -320 -156 -334 -340 -3 -47 -10 -88 -15 -93 -4 -4 -56 -8 -114 -8
l-107 0 3 100 c6 205 78 343 232 441 33 22 60 42 60 46 0 4 -15 17 -32 29
-124 85 -199 178 -237 292 -21 63 -39 232 -28 261 5 13 24 16 110 16 67 0 107
-4 115 -12z m-4660 -580 c2 -436 -1 -578 -10 -578 -9 0 -351 178 -608 317 -30
17 -109 58 -175 93 -219 115 -289 152 -340 180 -160 88 -283 149 -289 143 -3
-3 -6 -169 -6 -368 0 -267 -3 -364 -12 -373 -8 -8 -48 -12 -115 -12 l-103 0 0
208 c0 115 -3 379 -7 587 l-6 379 84 -46 c46 -25 104 -57 129 -70 84 -47 325
-175 465 -248 77 -40 214 -112 305 -160 91 -48 219 -115 285 -150 66 -34 125
-67 132 -72 30 -24 33 6 33 371 0 202 3 371 7 375 4 3 57 5 117 4 l111 -3 3
-577z m4070 574 c9 -6 12 -36 10 -113 l-3 -104 -705 -8 c-388 -4 -711 -10
-718 -12 -9 -4 -12 -33 -10 -117 l3 -113 483 -3 482 -2 0 -115 0 -115 -479 0
-480 0 -3 -104 c-2 -57 -2 -111 0 -120 3 -14 70 -16 715 -18 l712 -3 3 -104
c1 -57 -1 -108 -5 -112 -4 -4 -381 -9 -837 -10 l-829 -1 -4 577 c-2 318 -2
584 1 592 4 11 148 13 828 13 453 0 829 -4 836 -8z m-6647 -64 c-75 -92 -215
-275 -299 -391 -113 -156 -140 -187 -159 -180 -12 5 -15 2 -11 -8 4 -10 -2
-14 -20 -16 -13 0 -28 -6 -32 -13 -4 -7 -17 -10 -31 -6 -13 3 -18 3 -11 0 14
-6 -27 -44 -48 -44 -6 0 -8 -4 -5 -10 3 -5 1 -10 -5 -10 -18 0 -6 24 18 35 12
5 22 14 22 19 0 4 -11 1 -25 -8 -13 -9 -32 -16 -41 -16 -13 0 -14 -3 -5 -14
10 -12 9 -13 -8 -9 -15 4 -18 9 -11 26 4 12 13 21 19 19 7 -1 4 10 -6 25 -16
25 -16 26 -1 21 9 -4 22 -1 28 8 7 8 9 14 5 14 -4 0 -3 6 2 13 6 6 16 29 22
49 14 43 95 171 151 238 20 25 70 95 110 155 116 176 100 165 258 165 l134 0
-51 -62z m547 -503 c1 -308 0 -570 -3 -582 -5 -22 -10 -23 -98 -23 -50 0 -98
4 -105 8 -10 7 -13 131 -16 580 -2 314 -1 574 2 577 3 3 53 4 111 3 l106 -3 3
-560z m9192 -325 c-10 -18 -7 -24 11 -22 3 1 4 -10 1 -23 -2 -15 0 -25 7 -25
7 0 9 5 5 13 -5 8 -2 8 9 -2 18 -14 23 -26 8 -16 -5 3 -12 1 -15 -4 -4 -5 -2
-12 3 -15 15 -9 1 -45 -20 -51 -10 -4 -19 -13 -19 -21 0 -8 -4 -15 -10 -15 -5
-1 -14 -2 -19 -3 -5 0 -13 -5 -18 -10 -5 -6 -2 -6 7 -1 13 8 13 7 1 -8 -9 -12
-10 -17 -2 -17 7 0 9 -5 6 -11 -10 -14 -38 27 -30 44 4 6 0 4 -8 -5 -15 -19
-37 -24 -37 -8 0 13 -32 0 -47 -19 -20 -26 -14 -36 7 -13 20 22 41 29 39 15
-5 -29 3 -33 22 -12 18 22 19 22 10 3 -8 -16 -7 -22 2 -21 6 0 21 -1 32 -2 44
-6 -30 -19 -110 -20 l-80 0 31 28 c17 15 46 50 64 77 76 110 186 232 150 164z
m30 -164 c0 -3 -4 -8 -10 -11 -5 -3 -10 -1 -10 4 0 6 5 11 10 11 6 0 10 -2 10
-4z m50 -21 c-7 -8 -17 -15 -22 -15 -11 0 14 29 26 30 5 0 3 -7 -4 -15z"/>
<path d="M3780 7011 c0 -11 4 -22 9 -25 4 -3 6 6 3 19 -5 30 -12 33 -12 6z"/>
<path d="M3786 6957 c3 -10 9 -15 12 -12 3 3 0 11 -7 18 -10 9 -11 8 -5 -6z"/>
<path d="M3880 6810 c0 -5 7 -10 16 -10 8 0 12 5 9 10 -3 6 -10 10 -16 10 -5
0 -9 -4 -9 -10z"/>
<path d="M11305 8670 c-3 -6 1 -7 9 -4 18 7 21 14 7 14 -6 0 -13 -4 -16 -10z"/>
<path d="M11330 8610 c0 -5 5 -10 11 -10 5 0 7 5 4 10 -3 6 -8 10 -11 10 -2 0
-4 -4 -4 -10z"/>
<path d="M11311 8084 c0 -11 3 -14 6 -6 3 7 2 16 -1 19 -3 4 -6 -2 -5 -13z"/>
<path d="M11300 7949 c0 -5 5 -7 10 -4 6 3 10 8 10 11 0 2 -4 4 -10 4 -5 0
-10 -5 -10 -11z"/>
<path d="M12310 3589 c0 -11 4 -18 10 -14 5 3 7 12 3 20 -7 21 -13 19 -13 -6z"/>
</g>
</svg>
